# xmcd CD database file
#
# Track frame offsets:
#	150
#	12837
#	28521
#	46412
#	59511
#	79151
#	96884
#	110028
#	122675
#	144326
#	160420
#	173967
#	189905
#	205377
#
# Disc length: 3163 seconds
#
# Revision: 0
# Processed by: cddbd v1.5.1PL0 Copyright (c) Steve Scherf et al.
# Submitted via: CDex 1.51
#
DISCID=be0c590e
DTITLE=One Way - First blast
DYEAR=2004
DGENRE=Blues
TTITLE0=Leave here running
TTITLE1=If my baby quits me
TTITLE2=If the telephone don't ring
TTITLE3=The walk
TTITLE4=You keep watchin'me
TTITLE5=Music is dead for tonight
TTITLE6=See you later alligator
TTITLE7=Lucky at cards (one way boogie)
TTITLE8=World keeps turning
TTITLE9=I'm in the mood for you
TTITLE10=Instinct to survive
TTITLE11=Down at the doctors
TTITLE12=Whole a lotta shakin' goin'on
TTITLE13=Big bad lovin'
EXTD=YEAR: 2004
EXTT0=
EXTT1=
EXTT2=
EXTT3=
EXTT4=
EXTT5=
EXTT6=
EXTT7=
EXTT8=
EXTT9=
EXTT10=
EXTT11=
EXTT12=
EXTT13=
PLAYORDER=
